REM DIRINDEX 1\2,1\3
REM DIRNAME folder01,folder02,folder03
TITLE ""
FILE "Disc1Track05.mp3" MP3
  TRACK 01 AUDIO
    TITLE "0:"
    INDEX 01 00:00:00
  TRACK 02 AUDIO
    TITLE "3:cjc116_0603"
    INDEX 01 00:00:09
  TRACK 03 AUDIO
    TITLE "0:"
    INDEX 01 00:01:38
  TRACK 04 AUDIO
    TITLE "2:cjc116_0604"
    INDEX 01 00:02:18
  TRACK 05 AUDIO
    TITLE "0:"
    INDEX 01 00:03:43
  TRACK 06 AUDIO
    TITLE "2:cjc116_0605"
    INDEX 01 00:03:66
  TRACK 07 AUDIO
    TITLE "0:"
    INDEX 01 00:06:22
  TRACK 08 AUDIO
    TITLE "2:cjc116_0606"
    INDEX 01 00:06:59
  TRACK 09 AUDIO
    TITLE "0:"
    INDEX 01 00:08:40
  TRACK 10 AUDIO
    TITLE "2:cjc116_0607"
    INDEX 01 00:09:08
  TRACK 11 AUDIO
    TITLE "0:"
    INDEX 01 00:10:23
  TRACK 12 AUDIO
    TITLE "2:cjc116_0608"
    INDEX 01 00:10:49
  TRACK 13 AUDIO
    TITLE "0:"
    INDEX 01 00:12:34
  TRACK 14 AUDIO
    TITLE "2:cjc116_0609"
    INDEX 01 00:12:56
  TRACK 15 AUDIO
    TITLE "0:"
    INDEX 01 00:15:28
  TRACK 16 AUDIO
    TITLE "2:cjc116_0610"
    INDEX 01 00:15:68
  TRACK 17 AUDIO
    TITLE "0:"
    INDEX 01 00:16:73
  TRACK 18 AUDIO
    TITLE "2:cjc116_0611"
    INDEX 01 00:17:21
  TRACK 19 AUDIO
    TITLE "0:"
    INDEX 01 00:18:58
  TRACK 20 AUDIO
    TITLE "2:cjc116_0612"
    INDEX 01 00:19:16
  TRACK 21 AUDIO
    TITLE "0:"
    INDEX 01 00:21:13
  TRACK 22 AUDIO
    TITLE "2:cjc116_0613"
    INDEX 01 00:21:64
  TRACK 23 AUDIO
    TITLE "0:"
    INDEX 01 00:23:08
  TRACK 24 AUDIO
    TITLE "2:cjc116_0614"
    INDEX 01 00:23:28
  TRACK 25 AUDIO
    TITLE "0:"
    INDEX 01 00:25:19
  TRACK 26 AUDIO
    TITLE "2:cjc116_0615"
    INDEX 01 00:25:56
  TRACK 27 AUDIO
    TITLE "0:"
    INDEX 01 00:27:47
  TRACK 28 AUDIO
    TITLE "2:cjc116_0616"
    INDEX 01 00:28:15
  TRACK 29 AUDIO
    TITLE "0:"
    INDEX 01 00:29:19
  TRACK 30 AUDIO
    TITLE "2:cjc116_0617"
    INDEX 01 00:29:48
  TRACK 31 AUDIO
    TITLE "0:"
    INDEX 01 00:31:37
  TRACK 32 AUDIO
    TITLE "2:cjc116_0618"
    INDEX 01 00:31:71
  TRACK 33 AUDIO
    TITLE "0:"
    INDEX 01 00:33:44
  TRACK 34 AUDIO
    TITLE "2:cjc116_0619"
    INDEX 01 00:34:10
  TRACK 35 AUDIO
    TITLE "0:"
    INDEX 01 00:35:19
  TRACK 36 AUDIO
    TITLE "2:cjc116_0620"
    INDEX 01 00:35:35
  TRACK 37 AUDIO
    TITLE "0:"
    INDEX 01 00:36:70
  TRACK 38 AUDIO
    TITLE "2:cjc116_0621"
    INDEX 01 00:37:26
  TRACK 39 AUDIO
    TITLE "0:"
    INDEX 01 00:40:19
  TRACK 40 AUDIO
    TITLE "2:cjc116_0622"
    INDEX 01 00:40:66
  TRACK 41 AUDIO
    TITLE "0:"
    INDEX 01 00:41:61
  TRACK 42 AUDIO
    TITLE "2:cjc116_0623"
    INDEX 01 00:42:14
  TRACK 43 AUDIO
    TITLE "0:"
    INDEX 01 00:43:64
  TRACK 44 AUDIO
    TITLE "2:cjc116_0624"
    INDEX 01 00:44:24
  TRACK 45 AUDIO
    TITLE "0:"
    INDEX 01 00:46:07
  TRACK 46 AUDIO
    TITLE "2:cjc116_0625"
    INDEX 01 00:46:43
  TRACK 47 AUDIO
    TITLE "0:"
    INDEX 01 00:47:44
  TRACK 48 AUDIO
    TITLE "2:cjc116_0626"
    INDEX 01 00:47:60
  TRACK 49 AUDIO
    TITLE "0:"
    INDEX 01 00:49:35
  TRACK 50 AUDIO
    TITLE "2:cjc116_0627"
    INDEX 01 00:50:01
  TRACK 51 AUDIO
    TITLE "0:"
    INDEX 01 00:52:02
  TRACK 52 AUDIO
    TITLE "2:cjc116_0628"
    INDEX 01 00:52:45
  TRACK 53 AUDIO
    TITLE "0:"
    INDEX 01 00:53:47
  TRACK 54 AUDIO
    TITLE "2:cjc116_0629"
    INDEX 01 00:54:01
  TRACK 55 AUDIO
    TITLE "0:"
    INDEX 01 00:55:59
  TRACK 56 AUDIO
    TITLE "2:cjc116_0630"
    INDEX 01 00:56:18
  TRACK 57 AUDIO
    TITLE "0:"
    INDEX 01 00:58:18
  TRACK 58 AUDIO
    TITLE "2:cjc116_0631"
    INDEX 01 00:58:60
  TRACK 59 AUDIO
    TITLE "0:"
    INDEX 01 00:59:67
  TRACK 60 AUDIO
    TITLE "2:cjc116_0632"
    INDEX 01 01:00:10
  TRACK 61 AUDIO
    TITLE "0:"
    INDEX 01 01:01:68
  TRACK 62 AUDIO
    TITLE "2:cjc116_0633"
    INDEX 01 01:02:24
  TRACK 63 AUDIO
    TITLE "0:"
    INDEX 01 01:04:01
  TRACK 64 AUDIO
    TITLE "2:cjc116_0634"
    INDEX 01 01:04:45
  TRACK 65 AUDIO
    TITLE "0:"
    INDEX 01 01:05:52
  TRACK 66 AUDIO
    TITLE "2:cjc116_0635"
    INDEX 01 01:05:73
  TRACK 67 AUDIO
    TITLE "0:"
    INDEX 01 01:07:43
  TRACK 68 AUDIO
    TITLE "2:cjc116_0636"
    INDEX 01 01:07:72
  TRACK 69 AUDIO
    TITLE "0:"
    INDEX 01 01:10:20
  TRACK 70 AUDIO
    TITLE "2:cjc116_0637"
    INDEX 01 01:10:61
  TRACK 71 AUDIO
    TITLE "0:"
    INDEX 01 01:11:64
  TRACK 72 AUDIO
    TITLE "2:cjc116_0638"
    INDEX 01 01:12:09
  TRACK 73 AUDIO
    TITLE "0:"
    INDEX 01 01:13:55
  TRACK 74 AUDIO
    TITLE "2:cjc116_0639"
    INDEX 01 01:14:17
  TRACK 75 AUDIO
    TITLE "0:"
    INDEX 01 01:15:52
  TRACK 76 AUDIO
    TITLE "2:cjc116_0640"
    INDEX 01 01:16:16
  TRACK 77 AUDIO
    TITLE "0:"
    INDEX 01 01:17:14
  TRACK 78 AUDIO
    TITLE "2:cjc116_0641"
    INDEX 01 01:17:32
  TRACK 79 AUDIO
    TITLE "0:"
    INDEX 01 01:19:13
  TRACK 80 AUDIO
    TITLE "2:cjc116_0642"
    INDEX 01 01:19:46
  TRACK 81 AUDIO
    TITLE "0:"
    INDEX 01 01:21:25
  TRACK 82 AUDIO
    TITLE "2:cjc116_0643"
    INDEX 01 01:21:65
  TRACK 83 AUDIO
    TITLE "0:"
    INDEX 01 01:22:64
  TRACK 84 AUDIO
    TITLE "2:cjc116_0644"
    INDEX 01 01:23:07
  TRACK 85 AUDIO
    TITLE "0:"
    INDEX 01 01:24:47
  TRACK 86 AUDIO
    TITLE "2:cjc116_0645"
    INDEX 01 01:25:04
  TRACK 87 AUDIO
    TITLE "0:"
    INDEX 01 01:26:25
  TRACK 88 AUDIO
    TITLE "2:cjc116_0646"
    INDEX 01 01:26:66
  TRACK 89 AUDIO
    TITLE "0:"
    INDEX 01 01:27:67
  TRACK 90 AUDIO
    TITLE "2:cjc116_0647"
    INDEX 01 01:28:20
  TRACK 91 AUDIO
    TITLE "0:"
    INDEX 01 01:30:22
  TRACK 92 AUDIO
    TITLE "2:cjc116_0648"
    INDEX 01 01:30:54
  TRACK 93 AUDIO
    TITLE "0:"
    INDEX 01 01:33:07
  TRACK 94 AUDIO
    TITLE "2:cjc116_0649"
    INDEX 01 01:33:40
  TRACK 95 AUDIO
    TITLE "0:"
    INDEX 01 01:34:61
  TRACK 96 AUDIO
    TITLE "2:cjc116_0650"
    INDEX 01 01:34:71
  TRACK 97 AUDIO
    TITLE "0:"
    INDEX 01 01:36:74
  TRACK 98 AUDIO
    TITLE "2:cjc116_0651"
    INDEX 01 01:37:42
  TRACK 99 AUDIO
    TITLE "0:"
    INDEX 01 01:39:55
  TRACK 100 AUDIO
    TITLE "2:cjc116_0652"
    INDEX 01 01:40:25
  TRACK 101 AUDIO
    TITLE "0:"
    INDEX 01 01:41:28
  TRACK 102 AUDIO
    TITLE "2:cjc116_0653"
    INDEX 01 01:41:40
  TRACK 103 AUDIO
    TITLE "0:"
    INDEX 01 01:44:64
  TRACK 104 AUDIO
    TITLE "2:cjc116_0654"
    INDEX 01 01:45:26
  TRACK 105 AUDIO
    TITLE "0:"
    INDEX 01 01:49:22
  TRACK 106 AUDIO
    TITLE "2:cjc116_0655"
    INDEX 01 01:49:65
  TRACK 107 AUDIO
    TITLE "0:"
    INDEX 01 01:50:70
  TRACK 108 AUDIO
    TITLE "2:cjc116_0656"
    INDEX 01 01:51:15
  TRACK 109 AUDIO
    TITLE "0:"
    INDEX 01 01:52:48
  TRACK 110 AUDIO
    TITLE "2:cjc116_0657"
    INDEX 01 01:53:08
  TRACK 111 AUDIO
    TITLE "0:"
    INDEX 01 01:55:16
  TRACK 112 AUDIO
    TITLE "2:cjc116_0658"
    INDEX 01 01:55:60
  TRACK 113 AUDIO
    TITLE "0:"
    INDEX 01 01:56:67
  TRACK 114 AUDIO
    TITLE "2:cjc116_0659"
    INDEX 01 01:57:11
  TRACK 115 AUDIO
    TITLE "0:"
    INDEX 01 01:59:04
  TRACK 116 AUDIO
    TITLE "2:cjc116_0660"
    INDEX 01 01:59:36
  TRACK 117 AUDIO
    TITLE "0:"
    INDEX 01 02:01:64
  TRACK 118 AUDIO
    TITLE "2:cjc116_0661"
    INDEX 01 02:02:30
  TRACK 119 AUDIO
    TITLE "0:"
    INDEX 01 02:03:43
  TRACK 120 AUDIO
    TITLE "2:cjc116_0662"
    INDEX 01 02:03:69
  TRACK 121 AUDIO
    TITLE "0:"
    INDEX 01 02:06:34
  TRACK 122 AUDIO
    TITLE "2:cjc116_0663"
    INDEX 01 02:06:69
  TRACK 123 AUDIO
    TITLE "0:"
    INDEX 01 02:09:26
  TRACK 124 AUDIO
    TITLE "2:cjc116_0664"
    INDEX 01 02:09:62
  TRACK 125 AUDIO
    TITLE "0:"
    INDEX 01 02:10:67
  TRACK 126 AUDIO
    TITLE "2:cjc116_0665"
    INDEX 01 02:11:12
  TRACK 127 AUDIO
    TITLE "0:"
    INDEX 01 02:12:64
  TRACK 128 AUDIO
    TITLE "2:cjc116_0666"
    INDEX 01 02:13:26
  TRACK 129 AUDIO
    TITLE "0:"
    INDEX 01 02:15:41
  TRACK 130 AUDIO
    TITLE "2:cjc116_0667"
    INDEX 01 02:15:74
  TRACK 131 AUDIO
    TITLE "0:"
    INDEX 01 02:17:04
  TRACK 132 AUDIO
    TITLE "2:cjc116_0668"
    INDEX 01 02:17:26
  TRACK 133 AUDIO
    TITLE "0:"
    INDEX 01 02:19:29
  TRACK 134 AUDIO
    TITLE "2:cjc116_0669"
    INDEX 01 02:19:68
  TRACK 135 AUDIO
    TITLE "0:"
    INDEX 01 02:22:58
  TRACK 136 AUDIO
    TITLE "2:cjc116_0670"
    INDEX 01 02:23:15
  TRACK 137 AUDIO
    TITLE "0:"
    INDEX 01 02:24:28
  TRACK 138 AUDIO
    TITLE "2:cjc116_0671"
    INDEX 01 02:24:36
  TRACK 139 AUDIO
    TITLE "0:"
    INDEX 01 02:26:25
  TRACK 140 AUDIO
    TITLE "2:cjc116_0672"
    INDEX 01 02:26:56
  TRACK 141 AUDIO
    TITLE "0:"
    INDEX 01 02:28:71
  TRACK 142 AUDIO
    TITLE "2:cjc116_0673"
    INDEX 01 02:29:39
  TRACK 143 AUDIO
    TITLE "0:"
    INDEX 01 02:30:70
  TRACK 144 AUDIO
    TITLE "2:cjc116_0674"
    INDEX 01 02:31:16
  TRACK 145 AUDIO
    TITLE "0:"
    INDEX 01 02:33:70
  TRACK 146 AUDIO
    TITLE "2:cjc116_0675"
    INDEX 01 02:34:28
  TRACK 147 AUDIO
    TITLE "0:"
    INDEX 01 02:36:31
  TRACK 148 AUDIO
    TITLE "2:cjc116_0676"
    INDEX 01 02:36:72
  TRACK 149 AUDIO
    TITLE "0:"
    INDEX 01 02:38:06
  TRACK 150 AUDIO
    TITLE "2:cjc116_0677"
    INDEX 01 02:38:32
  TRACK 151 AUDIO
    TITLE "0:"
    INDEX 01 02:40:35
  TRACK 152 AUDIO
    TITLE "2:cjc116_0678"
    INDEX 01 02:41:01
  TRACK 153 AUDIO
    TITLE "0:"
    INDEX 01 02:42:71
  TRACK 154 AUDIO
    TITLE "2:cjc116_0679"
    INDEX 01 02:43:37
  TRACK 155 AUDIO
    TITLE "0:"
    INDEX 01 02:44:40
  TRACK 156 AUDIO
    TITLE "2:cjc116_0680"
    INDEX 01 02:44:72
  TRACK 157 AUDIO
    TITLE "0:"
    INDEX 01 02:47:31
  TRACK 158 AUDIO
    TITLE "2:cjc116_0681"
    INDEX 01 02:47:68
  TRACK 159 AUDIO
    TITLE "0:"
    INDEX 01 02:50:49
  TRACK 160 AUDIO
    TITLE "2:cjc116_0682"
    INDEX 01 02:51:17
  TRACK 161 AUDIO
    TITLE "0:"
    INDEX 01 02:52:32
  TRACK 162 AUDIO
    TITLE "2:cjc116_0683"
    INDEX 01 02:52:54
  TRACK 163 AUDIO
    TITLE "0:"
    INDEX 01 02:54:53
  TRACK 164 AUDIO
    TITLE "2:cjc116_0684"
    INDEX 01 02:55:09
  TRACK 165 AUDIO
    TITLE "0:"
    INDEX 01 02:57:37
  TRACK 166 AUDIO
    TITLE "2:cjc116_0685"
    INDEX 01 02:58:09
  TRACK 167 AUDIO
    TITLE "0:"
    INDEX 01 02:58:68
  TRACK 168 AUDIO
    TITLE "2:cjc116_0686"
    INDEX 01 02:59:20
  TRACK 169 AUDIO
    TITLE "0:"
    INDEX 01 03:00:28
  TRACK 170 AUDIO
    TITLE "2:cjc116_0687"
    INDEX 01 03:01:04
  TRACK 171 AUDIO
    TITLE "0:"
    INDEX 01 03:02:40
  TRACK 172 AUDIO
    TITLE "2:cjc116_0688"
    INDEX 01 03:03:08
  TRACK 173 AUDIO
    TITLE "0:"
    INDEX 01 03:04:10
  TRACK 174 AUDIO
    TITLE "2:cjc116_0689"
    INDEX 01 03:04:37
  TRACK 175 AUDIO
    TITLE "0:"
    INDEX 01 03:06:13
  TRACK 176 AUDIO
    TITLE "2:cjc116_0690"
    INDEX 01 03:06:38
  TRACK 177 AUDIO
    TITLE "0:"
    INDEX 01 03:08:13
  TRACK 178 AUDIO
    TITLE "2:cjc116_0691"
    INDEX 01 03:08:59
  TRACK 179 AUDIO
    TITLE "0:"
    INDEX 01 03:09:58
  TRACK 180 AUDIO
    TITLE "2:cjc116_0692"
    INDEX 01 03:10:03
  TRACK 181 AUDIO
    TITLE "0:"
    INDEX 01 03:11:55
  TRACK 182 AUDIO
    TITLE "2:cjc116_0693"
    INDEX 01 03:12:11
  TRACK 183 AUDIO
    TITLE "0:"
    INDEX 01 03:14:02
  TRACK 184 AUDIO
    TITLE "2:cjc116_0694"
    INDEX 01 03:14:49
  TRACK 185 AUDIO
    TITLE "0:"
    INDEX 01 03:15:49
  TRACK 186 AUDIO
    TITLE "2:cjc116_0695"
    INDEX 01 03:16:03
  TRACK 187 AUDIO
    TITLE "0:"
    INDEX 01 03:17:73
  TRACK 188 AUDIO
    TITLE "2:cjc116_0696"
    INDEX 01 03:18:22
  TRACK 189 AUDIO
    TITLE "0:"
    INDEX 01 03:19:74
  TRACK 190 AUDIO
    TITLE "2:cjc116_0697"
    INDEX 01 03:20:52
  TRACK 191 AUDIO
    TITLE "0:"
    INDEX 01 03:21:49
  TRACK 192 AUDIO
    TITLE "2:cjc116_0698"
    INDEX 01 03:22:02
  TRACK 193 AUDIO
    TITLE "0:"
    INDEX 01 03:23:70
  TRACK 194 AUDIO
    TITLE "2:cjc116_0699"
    INDEX 01 03:24:34
  TRACK 195 AUDIO
    TITLE "0:"
    INDEX 01 03:27:28
  TRACK 196 AUDIO
    TITLE "2:cjc116_0700"
    INDEX 01 03:27:60
  TRACK 197 AUDIO
    TITLE "0:"
    INDEX 01 03:28:71
  TRACK 198 AUDIO
    TITLE "2:cjc116_0701"
    INDEX 01 03:29:18
  TRACK 199 AUDIO
    TITLE "0:"
    INDEX 01 03:30:52
  TRACK 200 AUDIO
    TITLE "2:cjc116_0702"
    INDEX 01 03:31:09
  TRACK 201 AUDIO
    TITLE "0:"
    INDEX 01 03:33:02
  TRACK 202 AUDIO
    TITLE "2:cjc116_0703"
    INDEX 01 03:33:39
  TRACK 203 AUDIO
    TITLE "0:"
    INDEX 01 03:34:32
  TRACK 204 AUDIO
    TITLE "2:cjc116_0704"
    INDEX 01 03:34:54
  TRACK 205 AUDIO
    TITLE "0:"
    INDEX 01 03:36:35
  TRACK 206 AUDIO
    TITLE "2:cjc116_0705"
    INDEX 01 03:36:67
  TRACK 207 AUDIO
    TITLE "0:"
    INDEX 01 03:38:62
  TRACK 208 AUDIO
    TITLE "2:cjc116_0706"
    INDEX 01 03:39:30
  TRACK 209 AUDIO
    TITLE "0:"
    INDEX 01 03:40:37
  TRACK 210 AUDIO
    TITLE "2:cjc116_0707"
    INDEX 01 03:40:62
  TRACK 211 AUDIO
    TITLE "0:"
    INDEX 01 03:43:61
  TRACK 212 AUDIO
    TITLE "2:cjc116_0708"
    INDEX 01 03:44:17
  TRACK 213 AUDIO
    TITLE "0:"
    INDEX 01 03:48:19
  TRACK 214 AUDIO
    TITLE "2:cjc116_0709"
    INDEX 01 03:48:60
  TRACK 215 AUDIO
    TITLE "0:"
    INDEX 01 03:49:54
  TRACK 216 AUDIO
    TITLE "2:cjc116_0710"
    INDEX 01 03:50:02
  TRACK 217 AUDIO
    TITLE "0:"
    INDEX 01 03:51:35
  TRACK 218 AUDIO
    TITLE "2:cjc116_0711"
    INDEX 01 03:51:66
  TRACK 219 AUDIO
    TITLE "0:"
    INDEX 01 03:53:67
